<svg width="35" height="42" viewBox="0 0 35 42" fill="none" xmlns="http://www.w3.org/2000/svg">
<g clip-path="url(#clip0)">
<path d="M16.4666 0.740385V5.08173C16.4666 5.49399 16.7997 5.82212 17.2182 5.82212C17.6367 5.82212 17.9697 5.49399 17.9697 5.08173V0.740385C17.9697 0.328125 17.6367 0 17.2182 0C16.7997 0 16.4666 0.328125 16.4666 0.740385Z" fill="white"/>
<path d="M27.3902 9.86054C27.5866 9.86054 27.7831 9.78482 27.9197 9.64179L31.0798 6.52881C31.3702 6.24275 31.3702 5.7716 31.0798 5.48554C30.7894 5.19948 30.3111 5.19948 30.0207 5.48554L26.8607 8.59852C26.6471 8.80886 26.5788 9.12857 26.6984 9.40621C26.818 9.68386 27.0913 9.86054 27.3902 9.86054Z" fill="white"/>
<path d="M7.07174 9.64179C7.36213 9.92785 7.84041 9.92785 8.1308 9.64179C8.42118 9.35573 8.42118 8.88458 8.1308 8.59852L4.97072 5.48554C4.68034 5.19948 4.20205 5.19948 3.91167 5.48554C3.62128 5.7716 3.62128 6.24275 3.91167 6.52881L7.07174 9.64179Z" fill="white"/>
<path d="M34.2484 29.1022C32.6428 29.1022 31.0713 29.565 29.7304 30.4316C30.8065 27.226 31.5495 23.9195 31.9424 20.5626C32.1901 18.3162 31.4129 16.0698 29.8158 14.4376C28.2186 12.8138 25.9724 11.964 23.675 12.1323C22.3426 12.2332 16.7228 13.6131 15.2623 13.9832C14.6901 13.714 14.1435 13.3943 13.6225 13.0409C12.9222 12.5866 12.3158 12.1912 11.5727 12.1323C9.27526 11.9556 7.01196 12.7969 5.4063 14.4207C3.80063 16.053 3.00634 18.2994 3.25403 20.5626C3.65544 23.97 4.40703 27.3354 5.51733 30.5914C4.12518 29.6155 2.45974 29.0938 0.751586 29.1022C0.333089 29.1022 0 29.4304 0 29.8426C0 30.2549 0.333089 30.583 0.751586 30.583C2.19497 30.583 3.59566 31.0373 4.7572 31.8787L6.43119 33.0902C7.55857 35.9508 8.95071 38.7104 10.582 41.327C10.8724 41.7897 11.4104 42.0421 11.9571 41.958C12.5037 41.8739 12.9478 41.4784 13.0844 40.9568L13.6396 38.8534C14.2033 36.7164 15.3136 34.7561 16.868 33.1575L17.0559 32.9724C17.2523 32.7789 17.5683 32.7705 17.7648 32.9556L17.9868 33.1659C19.6864 34.7645 20.9163 36.7921 21.5398 39.0217L22.1035 41.0157C22.2487 41.5373 22.6928 41.9244 23.2394 42.0001C23.786 42.0758 24.3241 41.8234 24.6059 41.3691C26.2628 38.7104 27.672 35.9171 28.808 33.0061L30.0805 32.0217C31.2762 31.1046 32.7452 30.5998 34.257 30.5998C34.6755 30.5998 35.0085 30.2717 35.0085 29.8595C35 29.4304 34.6584 29.1022 34.2484 29.1022ZM23.4614 40.3342L22.9746 38.6095C22.2743 36.1191 20.9078 33.8643 19.0117 32.0806L18.7897 31.8787C17.9868 31.1299 16.7228 31.1551 15.9541 31.9376L15.7662 32.1311C14.0325 33.9063 12.794 36.0938 12.1706 38.4833L11.7008 40.3006C6.67033 32.1311 5.18424 24.3402 4.74866 20.4027C4.55222 18.577 5.18424 16.7681 6.48243 15.4556C7.78063 14.1431 9.59981 13.47 11.4531 13.6131C11.8119 13.6383 12.2474 13.9244 12.794 14.2777C14.3314 15.2789 16.6459 16.7849 21.9156 16.1371C22.1803 16.1034 22.4109 15.9352 22.522 15.6912C22.6245 15.4472 22.5903 15.1611 22.428 14.9508C22.2657 14.7405 22.001 14.6311 21.7277 14.6647C20.5918 14.8162 19.4388 14.8498 18.2943 14.7573C20.4722 14.2357 23.0344 13.6635 23.7775 13.6046C25.6223 13.47 27.4329 14.1515 28.7226 15.464C30.0122 16.7765 30.6357 18.5854 30.4392 20.3943C30.1489 22.9772 29.4144 27.2092 27.5268 32.1227C27.4414 32.232 27.3902 32.3667 27.3817 32.5013C26.3055 35.2272 24.9988 37.8438 23.4614 40.3342Z" fill="white"/>
</g>
<defs>
<clipPath id="clip0">
<rect width="35" height="42" fill="white"/>
</clipPath>
</defs>
</svg>
