<svg width="43" height="57" viewBox="0 0 43 57" fill="none" xmlns="http://www.w3.org/2000/svg">
<path fill-rule="evenodd" clip-rule="evenodd" d="M27.9663 45.8788C26.6674 38.5054 25.326 30.89 21.12 30.88C17.6055 30.9 16.2243 37.7684 14.7569 45.0656L14.75 45.1C14.03 48.72 12.82 54.78 11.77 55.1C6.59 55.1 1.9 28.16 1.9 17.68C1.9 8.54 6.05 1.9 11.77 1.91C13.12 1.91 14.54 2.58 16.04 3.29L16.0768 3.30736C17.6953 4.07198 19.3633 4.86 21.12 4.86C22.8767 4.86 24.5448 4.07198 26.1632 3.30736L26.2 3.29L26.2166 3.28222C27.7204 2.57511 29.1349 1.91 30.47 1.91C36.19 1.91 40.34 8.54 40.34 17.68C40.34 28.16 35.65 55.1 30.49 55.1C29.53 54.74 28.59 49.42 27.97 45.9L27.9663 45.8788ZM26.1025 46.2441C27.2411 52.7262 27.9918 57 30.47 57C38.45 57 42.24 25.46 42.24 17.68C42.24 7.43 37.29 0 30.47 0C28.7 0 27.01 0.8 25.39 1.57L25.341 1.59305C23.8495 2.29443 22.4554 2.95 21.12 2.95C19.77 2.95 18.35 2.28 16.85 1.57L16.8132 1.55264C15.1947 0.788022 13.5267 0 11.77 0C4.95 0 0 7.43 0 17.68C0 22.29 1.05 31.87 2.99 40.53C5.43 51.46 8.39 57 11.77 57C14.2 57 15.15 52.83 16.63 45.46L16.6438 45.3909C17.6539 40.3506 19.1689 32.79 21.12 32.78C23.7296 32.79 25.0996 40.5578 26.0996 46.2276L26.1 46.23L26.1025 46.2441ZM21.12 26.51C17.68 26.51 14.82 23.96 14.33 20.65H27.91C27.42 23.96 24.56 26.51 21.12 26.51ZM12.24 19.64C12.24 24.54 16.22 28.52 21.12 28.52C26.02 28.52 30 24.54 30 19.64C30 19.08 29.55 18.63 28.99 18.63H13.25C12.69 18.63 12.24 19.08 12.24 19.64ZM12.76 15.7101C10.05 15.7101 7.84003 13.5001 7.84003 10.7901C7.84003 10.2501 8.28003 9.81006 8.82003 9.81006C9.36003 9.81006 9.80003 10.2501 9.80003 10.7901C9.80003 12.4201 11.12 13.7401 12.75 13.7401C14.38 13.7401 15.7 12.4201 15.7 10.7901C15.7 10.2501 16.14 9.81006 16.68 9.81006C17.22 9.81006 17.66 10.2501 17.66 10.7901C17.68 13.5001 15.47 15.7101 12.76 15.7101ZM24.56 10.7901C24.56 13.5001 26.77 15.7101 29.48 15.7101C32.2 15.7101 34.4 13.5001 34.38 10.7901C34.38 10.2501 33.94 9.81006 33.4 9.81006C32.86 9.81006 32.42 10.2501 32.42 10.7901C32.42 12.4201 31.1 13.7401 29.47 13.7401C27.84 13.7401 26.52 12.4201 26.52 10.7901C26.52 10.2501 26.08 9.81006 25.54 9.81006C25 9.81006 24.56 10.2501 24.56 10.7901Z" fill="white"/>
</svg>
