<svg width="44" height="42" viewBox="0 0 44 42" fill="none" xmlns="http://www.w3.org/2000/svg">
<path d="M26.858 0.579909C25.8928 0.650533 22.0791 1.60789 21.0197 1.88254C20.6587 1.70205 20.3213 1.49803 19.9917 1.27046C19.4895 0.940879 19.0187 0.626992 18.4301 0.579909C16.743 0.446507 15.0794 1.07428 13.8945 2.29059C12.7096 3.50691 12.1367 5.1862 12.3172 6.87334C12.6389 9.80819 13.7375 15.6465 17.4806 21.7359C17.7396 22.1596 18.2261 22.3794 18.7126 22.3087C19.1992 22.2381 19.5994 21.8771 19.7249 21.3985L20.1094 19.8997C20.494 18.4244 21.2473 17.0668 22.2988 15.9682L22.4244 15.8348C22.4557 15.8034 22.5107 15.7956 22.5499 15.8348L22.7069 15.9839C23.8604 17.0904 24.7 18.4872 25.1238 20.0252L25.5161 21.4456C25.6495 21.9164 26.0419 22.2695 26.5284 22.3323C27.015 22.4029 27.4936 22.1753 27.7526 21.7594C31.5035 15.6543 32.61 9.80819 32.9317 6.87334C33.1122 5.19405 32.5394 3.5226 31.3701 2.30629C30.1931 1.08213 28.5452 0.454354 26.858 0.579909ZM30.2323 3.39705C31.0798 4.26808 31.4957 5.47655 31.3623 6.68501C31.0641 9.38444 30.0832 14.6342 26.8266 20.2214L26.654 19.5936C26.1518 17.7809 25.163 16.133 23.8055 14.8304L23.6485 14.6891C22.9815 14.0535 21.93 14.0771 21.2865 14.7362L21.161 14.8696C19.9133 16.1644 19.0265 17.7574 18.5792 19.4995L18.3988 20.1822C15.1657 14.6185 14.1848 9.38444 13.8866 6.69286C13.7532 5.47655 14.177 4.26808 15.0323 3.3892C15.8877 2.51031 17.0804 2.06302 18.3046 2.15719C18.4851 2.17289 18.7754 2.36122 19.1129 2.58879C20.2193 3.31857 21.8908 4.42503 25.6809 3.9542C26.0733 3.90711 26.3636 3.57753 26.3715 3.18517C26.3793 2.79281 26.0968 2.45538 25.7045 2.38476C26.1204 2.29059 26.5441 2.21212 26.9679 2.15719C28.192 2.06302 29.3848 2.52601 30.2323 3.39705Z" fill="white"/>
<path d="M38.1266 21.1083L32.3589 25.4164C31.1583 23.9568 29.2671 23.2584 27.4073 23.5801L21.5141 24.6081C20.5724 24.7729 19.6151 24.718 18.6969 24.459L18.0378 24.2707C14.6478 23.2976 10.9989 24.0588 8.28374 26.2953L8.03263 24.8749C7.95415 24.4433 7.5461 24.153 7.11451 24.2315L0.656279 25.3615C0.224684 25.4399 -0.0656613 25.848 0.0128105 26.2796L2.49252 40.4594C2.53175 40.6635 2.64162 40.8518 2.81425 40.9695C2.98689 41.0872 3.19876 41.1343 3.40279 41.1029L9.86102 39.9729C10.2926 39.8944 10.583 39.4864 10.5045 39.0548L10.3789 38.3564L11.8856 37.1087C12.4741 36.6143 13.2353 36.371 14.0043 36.4338L24.5431 37.2028C24.5588 37.2028 24.5745 37.2028 24.598 37.2028H24.6608C26.9836 37.195 29.2514 36.4574 31.1269 35.0841C31.1583 35.0606 31.1818 35.037 31.2132 35.0135L43.7608 22.7248C44.059 22.4345 44.0826 21.9558 43.8079 21.6419C42.3719 19.9783 39.8608 19.7429 38.1266 21.1083ZM3.92071 39.4157L1.71565 26.7896L6.62013 25.9343L8.82519 38.5526L3.92071 39.4157ZM30.1538 33.8286C28.553 34.9742 26.6383 35.5863 24.6686 35.5863H24.6373L14.1299 34.8408C12.9528 34.7545 11.7914 35.1312 10.889 35.8924L10.0807 36.5672L8.60547 28.1472C10.9518 25.7774 14.4045 24.8828 17.6062 25.8009L18.2653 25.9892C19.411 26.311 20.6195 26.3737 21.7887 26.1697L27.682 25.1417C29.3691 24.8514 31.0327 25.7695 31.6919 27.3468L22.8716 28.8927C22.44 28.9712 22.1497 29.3792 22.2282 29.8108C22.3066 30.2424 22.7147 30.5327 23.1463 30.4543L32.8297 28.7593C33.2613 28.6808 33.5517 28.2728 33.4732 27.8412C33.4104 27.4802 33.3084 27.1271 33.175 26.7896L39.0839 22.3717L39.0996 22.356C39.9471 21.6811 41.1399 21.6105 42.058 22.1912L30.1538 33.8286Z" fill="white"/>
</svg>
