<svg width="228" height="75" viewBox="0 0 228 75" fill="none" xmlns="http://www.w3.org/2000/svg">
<path d="M109.268 45.0103C107.56 45.0103 105.886 44.7291 104.246 44.1711C102.606 43.613 101.294 42.7099 100.31 41.4618C98.4055 39.0336 97.4512 35.7194 97.4512 31.5149C97.4512 27.3786 98.4012 24.0644 100.31 21.5681C102.278 19.0079 104.804 17.7299 107.892 17.7299C109.532 17.7299 110.976 18.0579 112.225 18.7139C113.537 19.502 114.589 20.5201 115.377 21.7683V10.5435H118.725C119.645 10.5435 120.433 10.8885 121.089 11.5786C121.745 12.2687 122.073 13.0398 122.073 13.8917V33.0954C122.073 37.7599 120.727 40.908 118.035 42.5481C115.343 44.1881 112.421 45.0103 109.268 45.0103ZM109.664 23.6384C107.956 23.6384 106.61 24.3285 105.626 25.7044C104.642 27.0165 104.148 28.8568 104.148 31.221C104.148 33.8494 104.638 35.8472 105.626 37.2275C106.61 38.6077 108.024 39.2935 109.86 39.2935C111.632 39.2935 113.013 38.6034 113.997 37.2275C114.913 35.8472 115.377 33.8451 115.377 31.221C115.377 28.8568 114.883 26.9867 113.899 25.6065C112.847 24.2987 111.436 23.6384 109.664 23.6384Z" fill="white"/>
<path d="M135.586 45.0102C131.846 45.0102 128.923 43.7962 126.823 41.368C124.719 39.0038 123.671 35.6257 123.671 31.2252C123.671 27.025 124.689 23.7406 126.725 21.3763C128.825 18.9482 131.748 17.7341 135.488 17.7341C139.428 17.7341 142.478 18.9141 144.647 21.2784C146.747 23.7065 147.799 27.0889 147.799 31.4212C147.799 31.6853 147.799 31.9153 147.799 32.1113C147.799 32.3072 147.799 32.4393 147.799 32.5032C147.799 32.8312 147.765 33.0612 147.701 33.1933H130.661C130.725 35.2295 131.219 36.7375 132.14 37.7216C132.992 38.7738 134.274 39.2977 135.982 39.2977C137.098 39.2977 138.048 39.0677 138.836 38.6076C139.032 38.5437 139.215 38.4287 139.377 38.2626C139.539 38.1007 139.722 37.9175 139.918 37.7216C139.982 37.5256 140.229 37.2615 140.655 36.9335C141.081 36.6055 141.69 36.4393 142.478 36.4393H147.403C146.679 39.1997 145.298 41.2999 143.266 42.744C141.235 44.2562 138.674 45.0102 135.586 45.0102ZM135.684 23.4424C134.24 23.4424 133.056 23.9025 132.14 24.8226C131.219 25.7427 130.725 27.0548 130.661 28.763H140.706C140.574 26.9909 140.114 25.6788 139.326 24.8226C138.474 23.9025 137.264 23.4424 135.684 23.4424Z" fill="white"/>
<path d="M172.736 44.516H169.29C168.306 44.516 167.501 44.205 166.879 43.5788C166.253 42.9568 165.942 42.1517 165.942 41.1677V27.7746C165.942 26.1984 165.465 25.0525 164.515 24.3283C163.561 23.6084 162.496 23.2463 161.316 23.2463C160.136 23.2463 159.083 23.6084 158.163 24.3283C157.243 25.0525 156.783 26.1984 156.783 27.7746V44.516H149.891V29.1548C149.891 24.6904 151.053 21.7042 153.388 20.192C155.718 18.684 158.295 17.8618 161.12 17.7297C164.008 17.7297 166.666 18.4837 169.094 19.996C171.522 21.5083 172.736 24.5584 172.736 29.1548V44.516Z" fill="white"/>
<path d="M183.761 44.5968C182.377 44.5968 180.924 44.5371 179.407 44.4221C176.881 44.2261 175.616 42.6159 175.616 39.5956V10.6411H179.16C180.012 10.6411 180.766 10.9691 181.427 11.6251C182.083 12.2812 182.411 13.0693 182.411 13.9894V18.4197H186.449V19.7999C186.449 20.7839 186.121 21.589 185.465 22.211C184.809 22.8372 184.021 23.1482 183.101 23.1482H182.411V37.7255C182.411 38.8416 183.067 39.3997 184.383 39.3997H186.449V44.5201C185.584 44.5712 184.685 44.5968 183.761 44.5968Z" fill="white"/>
<path d="M196.323 45.0101C193.959 45.0101 191.893 44.3711 190.121 43.0889C188.349 41.8109 187.463 39.6895 187.463 36.7374C187.463 33.9812 188.268 32.0132 189.878 30.8289C191.484 29.6489 193.537 28.8608 196.034 28.4647C196.362 28.4647 196.754 28.4178 197.218 28.3156C197.674 28.2176 198.202 28.1367 198.794 28.0685C201.682 27.6723 203.126 26.8204 203.126 25.5083C203.126 24.5243 202.615 23.8853 201.601 23.5871C200.583 23.2932 199.646 23.1441 198.794 23.1441C197.874 23.1441 197.056 23.2761 196.332 23.5402C195.608 23.8043 195.084 24.2942 194.756 25.0184H188.157C188.421 22.9822 189.341 21.308 190.913 19.996C192.685 18.488 195.212 17.7297 198.496 17.7297C202.172 17.7297 204.928 18.3559 206.769 19.5998C208.673 20.9161 209.623 22.7522 209.623 25.1164V34.0792C209.623 36.7076 209.146 38.7566 208.196 40.2348C207.242 41.713 206.108 42.7822 204.796 43.434C203.416 44.1581 201.955 44.5969 200.413 44.763C198.867 44.9292 197.503 45.0101 196.323 45.0101ZM203.216 31.3231C202.296 31.7831 201.014 32.2091 199.374 32.601L197.107 33.0952C195.923 33.4232 195.071 33.8492 194.547 34.3774C194.087 35.1016 193.857 35.8215 193.857 36.5457C193.857 37.5297 194.151 38.3178 194.743 38.9099C195.335 39.4382 196.187 39.698 197.303 39.698C199.139 39.698 200.588 39.1741 201.636 38.1219C202.683 37.0739 203.212 35.6256 203.212 33.7895V31.3231" fill="white"/>
<path d="M218.799 44.5158H211.906V10.6411H215.45C216.37 10.6411 217.159 10.9521 217.815 11.5783C218.471 12.2045 218.799 12.9755 218.799 13.8914V44.5158Z" fill="white"/>
<path d="M59.8278 60.678C56.7948 72.823 50.882 71.2128 43.7212 61.0061C51.6786 54.4799 60.0749 46.1007 65.911 37.517C63.9599 45.7684 61.4423 54.2243 59.8278 60.678ZM34.2046 62.0753C32.8542 63.038 28.8712 66.0114 25.5058 67.7495C20.9989 70.0754 17.8849 69.1382 16.5004 67.315C15.5632 66.0838 14.5963 64.0476 13.7528 60.678C11.576 51.9665 7.57168 38.9909 5.81661 28.5584C4.80275 22.5349 4.96037 20.422 4.94333 19.4934C4.87091 15.7191 6.19574 11.817 9.3012 9.00123C12.641 5.97244 17.0542 4.73281 21.4078 5.60183C25.344 6.38991 31.2013 7.20355 36.9096 7.42933C32.5475 10.4794 30.1534 12.4475 25.2417 11.1866C23.9169 10.85 22.5708 11.6466 22.23 12.9672C21.8892 14.292 22.6901 15.6381 24.0106 15.9789C35.9341 19.0333 37.3824 9.13329 52.8075 5.66573C59.8662 4.94155 65.928 8.69452 67.8535 13.9938C73.1485 28.5627 47.8192 52.3627 34.2046 62.0753ZM47.8362 1.66995C46.4773 2.1002 40.4283 2.54323 39.768 2.54323C33.5826 2.54323 26.7412 1.61883 22.3791 0.74555C16.4706 -0.434442 10.494 1.2397 5.97848 5.33346C1.75266 9.16737 -0.12169 14.5647 0.00610663 19.8554C0.329859 33.1591 5.13928 46.6119 8.95189 61.8793C10.068 66.3437 11.7719 70.4076 14.8604 72.5802C17.3439 74.331 20.5431 74.8209 24.4792 73.3811C29.3909 71.5791 35.6742 67.2298 39.8234 64.0817C44.6839 70.9699 49.2249 74.2884 53.6595 74.1777C60.7778 74.0158 63.3252 67.0807 64.6287 61.8793C67.5127 50.3393 72.4925 31.3614 73.5745 19.8554C74.746 7.42933 61.8044 -2.76035 47.8362 1.66995Z" fill="#5585ED"/>
<path d="M105.383 64.8231C104.906 65.0616 103.956 65.3002 102.734 65.3002C99.905 65.3002 97.7751 63.5153 97.7751 60.2224C97.7751 57.0828 99.905 54.9529 103.015 54.9529C104.267 54.9529 105.055 55.2213 105.396 55.4002L105.085 56.4566C104.595 56.2181 103.892 56.0392 103.062 56.0392C100.71 56.0392 99.1467 57.5429 99.1467 60.1755C99.1467 62.6335 100.561 64.2096 103.002 64.2096C103.79 64.2096 104.595 64.0478 105.115 63.7922L105.383 64.8231Z" fill="white"/>
<path d="M107.526 61.7856C107.556 63.5577 108.689 64.2861 109.997 64.2861C110.934 64.2861 111.501 64.1242 111.99 63.9155L112.212 64.8527C111.752 65.0614 110.959 65.3 109.814 65.3C107.594 65.3 106.269 63.8431 106.269 61.6663C106.269 59.4895 107.552 57.7812 109.647 57.7812C111.999 57.7812 112.625 59.8516 112.625 61.1764C112.625 61.4448 112.595 61.6535 112.583 61.7856H107.526ZM111.368 60.8484C111.381 60.0134 111.028 58.7184 109.554 58.7184C108.229 58.7184 107.65 59.941 107.543 60.8484H111.368Z" fill="white"/>
<path d="M114.252 59.8945C114.252 59.149 114.235 58.5399 114.193 57.9435H115.356L115.428 59.132H115.458C115.816 58.4461 116.651 57.7773 117.839 57.7773C118.836 57.7773 120.387 58.3737 120.387 60.8445V65.147H119.075V60.9936C119.075 59.8306 118.644 58.8636 117.409 58.8636C116.544 58.8636 115.875 59.4728 115.654 60.2055C115.594 60.3674 115.564 60.5931 115.564 60.8146V65.147H114.252V59.8945Z" fill="white"/>
<path d="M124.033 55.8774V57.9478H125.907V58.9446H124.033V62.8296C124.033 63.7242 124.284 64.2311 125.017 64.2311C125.358 64.2311 125.614 64.1842 125.775 64.1416L125.835 65.1257C125.584 65.2322 125.179 65.3046 124.672 65.3046C124.063 65.3046 123.569 65.1129 123.258 64.7551C122.887 64.3674 122.751 63.7284 122.751 62.8807V58.9531H121.635V57.9563H122.751V56.231L124.033 55.8774Z" fill="white"/>
<path d="M127.381 60.1924C127.381 59.3446 127.364 58.6162 127.322 57.9431H128.468L128.51 59.3574H128.57C128.898 58.3904 129.686 57.7812 130.563 57.7812C130.713 57.7812 130.815 57.7983 130.934 57.8281V59.0635C130.802 59.0337 130.666 59.0209 130.487 59.0209C129.562 59.0209 128.911 59.7195 128.732 60.7035C128.702 60.8825 128.672 61.0912 128.672 61.3127V65.1551H127.377V60.1924H127.381Z" fill="white"/>
<path d="M138.619 61.4874C138.619 64.1498 136.774 65.3127 135.032 65.3127C133.081 65.3127 131.577 63.8857 131.577 61.6066C131.577 59.1955 133.154 57.7812 135.151 57.7812C137.217 57.7812 138.619 59.285 138.619 61.4874ZM132.902 61.564C132.902 63.1402 133.81 64.333 135.092 64.333C136.344 64.333 137.281 63.1572 137.281 61.5342C137.281 60.3116 136.672 58.7653 135.122 58.7653C133.571 58.7653 132.902 60.1924 132.902 61.564Z" fill="white"/>
<path d="M152.042 60.0308C152.042 63.4856 149.942 65.3174 147.382 65.3174C144.732 65.3174 142.87 63.2641 142.87 60.2268C142.87 57.0404 144.851 54.9573 147.531 54.9573C150.27 54.953 152.042 57.0532 152.042 60.0308ZM144.255 60.1927C144.255 62.3354 145.418 64.2566 147.454 64.2566C149.507 64.2566 150.67 62.3652 150.67 60.0905C150.67 58.0968 149.627 56.0137 147.471 56.0137C145.328 56.0095 144.255 57.9903 144.255 60.1927Z" fill="white"/>
<path d="M159.957 54.5823V63.2895C159.957 63.9285 159.974 64.6569 160.016 65.1511H158.841L158.781 63.8987H158.751C158.351 64.7038 157.469 65.313 156.293 65.313C154.551 65.313 153.213 63.839 153.213 61.6494C153.201 59.2554 154.687 57.7815 156.442 57.7815C157.546 57.7815 158.287 58.3012 158.615 58.8848H158.645V54.5823H159.957ZM158.649 60.8784C158.649 60.7165 158.632 60.4908 158.589 60.3289C158.398 59.4939 157.682 58.8124 156.698 58.8124C155.343 58.8124 154.538 60.0051 154.538 61.5941C154.538 63.051 155.254 64.2565 156.668 64.2565C157.546 64.2565 158.351 63.6772 158.589 62.6931C158.632 62.5142 158.649 62.3353 158.649 62.1266V60.8784Z" fill="white"/>
<path d="M168.651 61.4874C168.651 64.1498 166.807 65.3127 165.064 65.3127C163.113 65.3127 161.61 63.8857 161.61 61.6066C161.61 59.1955 163.186 57.7812 165.184 57.7812C167.25 57.7812 168.651 59.285 168.651 61.4874ZM162.934 61.564C162.934 63.1402 163.842 64.333 165.124 64.333C166.376 64.333 167.314 63.1572 167.314 61.5342C167.314 60.3116 166.705 58.7653 165.154 58.7653C163.603 58.7653 162.934 60.1924 162.934 61.564Z" fill="white"/>
<path d="M170.3 59.8945C170.3 59.149 170.287 58.5399 170.24 57.9435H171.403L171.476 59.132H171.505C171.863 58.4461 172.698 57.7773 173.887 57.7773C174.884 57.7773 176.434 58.3737 176.434 60.8445V65.147H175.122V60.9936C175.122 59.8306 174.692 58.8636 173.456 58.8636C172.592 58.8636 171.923 59.4728 171.701 60.2055C171.642 60.3674 171.612 60.5931 171.612 60.8146V65.147H170.3V59.8945Z" fill="white"/>
<path d="M180.081 55.8774V57.9478H181.955V58.9446H180.081V62.8296C180.081 63.7242 180.332 64.2311 181.065 64.2311C181.405 64.2311 181.661 64.1842 181.823 64.1416L181.882 65.1257C181.631 65.2322 181.226 65.3046 180.72 65.3046C180.11 65.3046 179.616 65.1129 179.305 64.7551C178.935 64.3674 178.798 63.7284 178.798 62.8807V58.9531H177.682V57.9563H178.798V56.231L180.081 55.8774Z" fill="white"/>
<path d="M189.857 61.4874C189.857 64.1498 188.012 65.3127 186.27 65.3127C184.319 65.3127 182.815 63.8857 182.815 61.6066C182.815 59.1955 184.392 57.7812 186.389 57.7812C188.46 57.7812 189.857 59.285 189.857 61.4874ZM184.14 61.564C184.14 63.1402 185.048 64.333 186.33 64.333C187.582 64.333 188.519 63.1572 188.519 61.5342C188.519 60.3116 187.91 58.7653 186.36 58.7653C184.809 58.7653 184.14 60.1924 184.14 61.564Z" fill="white"/>
<path d="M191.51 54.5823H192.822V65.1511H191.51V54.5823Z" fill="white"/>
<path d="M201.538 61.4875C201.538 64.1499 199.693 65.3128 197.951 65.3128C196 65.3128 194.496 63.8858 194.496 61.6067C194.496 59.1956 196.072 57.7813 198.07 57.7813C200.14 57.7813 201.538 59.2851 201.538 61.4875ZM195.825 61.5641C195.825 63.1403 196.732 64.3331 198.015 64.3331C199.267 64.3331 200.204 63.1573 200.204 61.5343C200.204 60.3117 199.595 58.7654 198.045 58.7654C196.494 58.7654 195.825 60.1924 195.825 61.5641ZM199.979 54.8335L198.164 56.9634H197.227L198.539 54.8335H199.979Z" fill="white"/>
<path d="M209.397 57.9435C209.367 58.4632 209.338 59.0468 209.338 59.9243V64.1076C209.338 65.7604 209.01 66.77 208.311 67.3962C207.612 68.0522 206.598 68.261 205.691 68.261C204.826 68.261 203.876 68.0522 203.293 67.6646L203.621 66.6677C204.098 66.9659 204.843 67.2343 205.734 67.2343C207.076 67.2343 208.055 66.5357 208.055 64.7167V63.9116H208.025C207.625 64.5804 206.85 65.1171 205.734 65.1171C203.949 65.1171 202.667 63.6006 202.667 61.6027C202.667 59.1618 204.26 57.7773 205.913 57.7773C207.165 57.7773 207.847 58.4334 208.162 59.0297H208.192L208.251 57.9435H209.397ZM208.043 60.7891C208.043 60.5676 208.03 60.3716 207.97 60.1927C207.732 59.4344 207.093 58.8082 206.138 58.8082C204.886 58.8082 203.996 59.8647 203.996 61.5303C203.996 62.9446 204.711 64.1203 206.126 64.1203C206.931 64.1203 207.659 63.6134 207.94 62.7827C208.013 62.5612 208.043 62.3056 208.043 62.0841V60.7891Z" fill="white"/>
<path d="M212.877 55.92C212.894 56.3672 212.566 56.7251 212.043 56.7251C211.582 56.7251 211.254 56.3672 211.254 55.92C211.254 55.4599 211.595 55.1021 212.072 55.1021C212.566 55.1021 212.877 55.4599 212.877 55.92ZM211.421 65.1511V57.9477H212.733V65.1511H211.421Z" fill="white"/>
<path d="M220.038 64.8828C219.698 65.0617 218.935 65.3003 217.968 65.3003C215.796 65.3003 214.381 63.8263 214.381 61.624C214.381 59.4046 215.898 57.7986 218.253 57.7986C219.029 57.7986 219.71 57.9903 220.068 58.1692L219.77 59.1831C219.459 59.0041 218.965 58.8423 218.253 58.8423C216.601 58.8423 215.706 60.0649 215.706 61.5643C215.706 63.23 216.78 64.2566 218.207 64.2566C218.952 64.2566 219.442 64.0649 219.813 63.8988L220.038 64.8828Z" fill="white"/>
<path d="M228 61.4874C228 64.1498 226.156 65.3127 224.413 65.3127C222.462 65.3127 220.958 63.8857 220.958 61.6066C220.958 59.1955 222.535 57.7812 224.533 57.7812C226.603 57.7812 228 59.285 228 61.4874ZM222.283 61.564C222.283 63.1402 223.191 64.333 224.473 64.333C225.725 64.333 226.662 63.1572 226.662 61.5342C226.662 60.3116 226.053 58.7653 224.503 58.7653C222.956 58.7653 222.283 60.1924 222.283 61.564Z" fill="white"/>
</svg>
