<svg width="113" height="37" viewBox="0 0 113 37" fill="none" xmlns="http://www.w3.org/2000/svg">
<path d="M54.1549 22.1215C53.3082 22.1215 52.4785 21.9821 51.6657 21.7055C50.8529 21.429 50.2026 20.9814 49.7149 20.3628C48.7711 19.1594 48.2982 17.5168 48.2982 15.433C48.2982 13.3829 48.769 11.7404 49.7149 10.5032C50.6903 9.2343 51.9423 8.60092 53.4729 8.60092C54.2858 8.60092 55.0015 8.76349 55.6201 9.08862C56.2704 9.4792 56.7918 9.9838 57.1824 10.6024V5.03922H58.8419C59.2979 5.03922 59.6885 5.21023 60.0136 5.55225C60.3388 5.89428 60.5013 6.27642 60.5013 6.69867V16.2162C60.5013 18.5281 59.8342 20.0883 58.4998 20.9011C57.1655 21.714 55.7172 22.1215 54.1549 22.1215ZM54.3512 11.5292C53.5046 11.5292 52.8374 11.8713 52.3497 12.5532C51.862 13.2035 51.6171 14.1155 51.6171 15.2873C51.6171 16.5899 51.8599 17.5801 52.3497 18.2642C52.8374 18.9482 53.5384 19.2881 54.4483 19.2881C55.3266 19.2881 56.0107 18.9461 56.4984 18.2642C56.9523 17.5801 57.1824 16.5878 57.1824 15.2873C57.1824 14.1155 56.9375 13.1887 56.4498 12.5046C55.9283 11.8565 55.2295 11.5292 54.3512 11.5292Z" fill="#243040"/>
<path d="M67.1982 22.1214C65.3445 22.1214 63.8962 21.5197 62.8554 20.3163C61.8124 19.1445 61.293 17.4703 61.293 15.2894C61.293 13.2077 61.7976 11.5799 62.8068 10.4081C63.8477 9.20471 65.296 8.603 67.1497 8.603C69.1026 8.603 70.6143 9.18782 71.6889 10.3596C72.7297 11.563 73.2512 13.2393 73.2512 15.3865C73.2512 15.5174 73.2512 15.6314 73.2512 15.7285C73.2512 15.8256 73.2512 15.8911 73.2512 15.9228C73.2512 16.0853 73.2343 16.1993 73.2027 16.2648H64.7576C64.7893 17.274 65.0342 18.0213 65.4902 18.509C65.9125 19.0305 66.548 19.2902 67.3946 19.2902C67.9477 19.2902 68.4185 19.1762 68.8091 18.9482C68.9063 18.9165 68.997 18.8595 69.0773 18.7772C69.1575 18.697 69.2483 18.6062 69.3454 18.509C69.3771 18.4119 69.4995 18.281 69.7106 18.1185C69.9218 17.9559 70.2237 17.8736 70.6143 17.8736H73.0549C72.696 19.2417 72.0119 20.2825 71.0048 20.9982C69.9978 21.7477 68.7289 22.1214 67.1982 22.1214ZM67.2468 11.4321C66.5311 11.4321 65.9441 11.6601 65.4902 12.1161C65.0342 12.5722 64.7893 13.2224 64.7576 14.0691H69.736C69.6705 13.1908 69.4425 12.5405 69.0519 12.1161C68.6297 11.6601 68.0301 11.4321 67.2468 11.4321Z" fill="#243040"/>
<path d="M85.6106 21.8765H83.9025C83.4148 21.8765 83.0158 21.7224 82.7076 21.412C82.3972 21.1038 82.2431 20.7048 82.2431 20.2171V13.5793C82.2431 12.7981 82.0066 12.2302 81.5358 11.8712C81.0629 11.5144 80.5351 11.335 79.9503 11.335C79.3654 11.335 78.844 11.5144 78.3879 11.8712C77.9319 12.2302 77.7039 12.7981 77.7039 13.5793V21.8765H74.2878V14.2633C74.2878 12.0507 74.8642 10.5707 76.0212 9.8212C77.1761 9.07381 78.4534 8.66634 79.8531 8.60089C81.2846 8.60089 82.602 8.97458 83.8054 9.72408C85.0088 10.4736 85.6106 11.9852 85.6106 14.2633V21.8765" fill="#243040"/>
<path d="M91.0746 21.9166C90.3884 21.9166 89.6685 21.8871 88.9169 21.8301C87.6649 21.7329 87.0378 20.9349 87.0378 19.438V5.08774H88.7944C89.2167 5.08774 89.5904 5.25031 89.9176 5.57544C90.2427 5.90057 90.4053 6.29116 90.4053 6.74719V8.94291H92.4068V9.62696C92.4068 10.1147 92.2442 10.5137 91.9191 10.8219C91.5939 11.1323 91.2034 11.2864 90.7473 11.2864H90.4053V18.5112C90.4053 19.0643 90.7304 19.3409 91.3828 19.3409H92.4068V21.8786C91.9782 21.904 91.5327 21.9166 91.0746 21.9166Z" fill="#243040"/>
<path d="M97.3007 22.1214C96.1289 22.1214 95.105 21.8047 94.2267 21.1692C93.3484 20.5359 92.9092 19.4845 92.9092 18.0214C92.9092 16.6554 93.3083 15.68 94.1063 15.093C94.9023 14.5082 95.9199 14.1176 97.1571 13.9213C97.3197 13.9213 97.5139 13.8981 97.744 13.8474C97.9699 13.7988 98.2317 13.7587 98.5252 13.7249C99.9566 13.5286 100.672 13.1063 100.672 12.4561C100.672 11.9684 100.419 11.6517 99.9165 11.5039C99.4119 11.3582 98.9475 11.2843 98.5252 11.2843C98.0692 11.2843 97.6638 11.3498 97.3049 11.4807C96.946 11.6116 96.6863 11.8543 96.5237 12.2133H93.2534C93.3843 11.2041 93.8403 10.3744 94.6194 9.72408C95.4977 8.9767 96.7496 8.60089 98.3774 8.60089C100.199 8.60089 101.565 8.91125 102.477 9.52774C103.421 10.1801 103.892 11.0901 103.892 12.2618V16.7039C103.892 18.0066 103.656 19.0221 103.185 19.7547C102.712 20.4873 102.15 21.0172 101.5 21.3403C100.816 21.6992 100.092 21.9166 99.3275 21.999C98.5611 22.0813 97.8855 22.1214 97.3007 22.1214ZM100.717 15.3379C100.261 15.566 99.6252 15.7771 98.8123 15.9713L97.6891 16.2162C97.1022 16.3788 96.68 16.5899 96.4203 16.8517C96.1923 17.2106 96.0783 17.5674 96.0783 17.9263C96.0783 18.414 96.2239 18.8046 96.5174 19.0981C96.8109 19.3599 97.2331 19.4887 97.7863 19.4887C98.6962 19.4887 99.414 19.229 99.9334 18.7075C100.453 18.1881 100.715 17.4703 100.715 16.5604V15.3379" fill="#243040"/>
<path d="M108.44 21.8765H105.024V5.08774H106.78C107.236 5.08774 107.627 5.24186 107.952 5.55222C108.277 5.86257 108.44 6.24471 108.44 6.69863V21.8765Z" fill="#243040"/>
<path d="M29.6515 29.8867C28.1483 35.9059 25.2179 35.1078 21.6688 30.0492C25.6127 26.8148 29.774 22.6619 32.6664 18.4077C31.6994 22.4972 30.4517 26.6881 29.6515 29.8867ZM16.9523 30.5792C16.283 31.0563 14.309 32.53 12.6411 33.3914C10.4073 34.5441 8.864 34.0796 8.17784 33.176C7.71336 32.5659 7.23411 31.5567 6.81608 29.8867C5.73722 25.5691 3.75263 19.1382 2.88279 13.9677C2.38031 10.9824 2.45843 9.93522 2.44998 9.47496C2.41409 7.60438 3.07069 5.67046 4.6098 4.27492C6.26504 2.77381 8.45231 2.15943 10.61 2.59013C12.5608 2.98071 15.4638 3.38396 18.2929 3.49586C16.131 5.00753 14.9444 5.98293 12.5102 5.358C11.8536 5.19121 11.1864 5.58601 11.0175 6.2405C10.8486 6.89711 11.2455 7.56427 11.9 7.73317C17.8094 9.24694 18.5273 4.34037 26.1721 2.6218C29.6705 2.26288 32.6748 4.12291 33.6291 6.74932C36.2534 13.9698 23.6999 25.7655 16.9523 30.5792ZM23.7083 0.641431C23.0348 0.854669 20.0368 1.07424 19.7096 1.07424C16.644 1.07424 13.2533 0.616096 11.0914 0.183287C8.16306 -0.401534 5.20096 0.428193 2.96302 2.45712C0.868645 4.35726 -0.0603114 7.03223 0.00302653 9.65442C0.163483 16.2479 2.5471 22.9153 4.43668 30.482C4.98983 32.6946 5.83434 34.7088 7.365 35.7855C8.59587 36.6533 10.1814 36.8961 12.1322 36.1825C14.5665 35.2894 17.6806 33.1338 19.737 31.5736C22.146 34.9875 24.3966 36.6322 26.5944 36.5773C30.1223 36.497 31.3849 33.0599 32.0309 30.482C33.4602 24.7626 35.9283 15.3569 36.4646 9.65442C37.0452 3.49586 30.6311 -1.55428 23.7083 0.641431Z" fill="#5585ED"/>
<path d="M52.2293 31.9409C51.9929 32.0591 51.5221 32.1774 50.9161 32.1774C49.5143 32.1774 48.4586 31.2927 48.4586 29.6607C48.4586 28.1047 49.5143 27.0491 51.0555 27.0491C51.6762 27.0491 52.0668 27.1821 52.2357 27.2708L52.0815 27.7944C51.8387 27.6761 51.4904 27.5875 51.0787 27.5875C49.9133 27.5875 49.1384 28.3328 49.1384 29.6375C49.1384 30.8557 49.8394 31.6369 51.0491 31.6369C51.4397 31.6369 51.8388 31.5567 52.0963 31.43L52.2293 31.9409Z" fill="#243040"/>
<path d="M53.2913 30.4356C53.3061 31.3139 53.8677 31.6749 54.5159 31.6749C54.9803 31.6749 55.2612 31.5947 55.5039 31.4912L55.6137 31.9557C55.3857 32.0591 54.993 32.1774 54.4251 32.1774C53.3251 32.1774 52.6685 31.4553 52.6685 30.3765C52.6685 29.2976 53.304 28.451 54.3428 28.451C55.5082 28.451 55.8185 29.4771 55.8185 30.1337C55.8185 30.2667 55.8037 30.3701 55.7974 30.4356H53.2913ZM55.1957 29.9711C55.202 29.5573 55.0268 28.9155 54.2963 28.9155C53.6397 28.9155 53.3526 29.5214 53.2998 29.9711H55.1957Z" fill="#243040"/>
<path d="M56.625 29.4982C56.625 29.1287 56.6166 28.8268 56.5955 28.5312H57.1718L57.2077 29.1203H57.2225C57.3999 28.7804 57.8137 28.4489 58.4027 28.4489C58.8967 28.4489 59.6652 28.7445 59.6652 29.969V32.1014H59.015V30.0429C59.015 29.4665 58.8017 28.9873 58.1895 28.9873C57.7609 28.9873 57.4294 29.2892 57.3196 29.6523C57.2901 29.7325 57.2753 29.8444 57.2753 29.9542V32.1014H56.625V29.4982V29.4982Z" fill="#243040"/>
<path d="M61.4725 27.5072V28.5333H62.4015V29.0273H61.4725V30.9528C61.4725 31.3962 61.5971 31.6474 61.9602 31.6474C62.1291 31.6474 62.2558 31.6242 62.336 31.6031L62.3656 32.0908C62.241 32.1436 62.0404 32.1795 61.7892 32.1795C61.4873 32.1795 61.2424 32.0845 61.0883 31.9071C60.9046 31.715 60.837 31.3983 60.837 30.9782V29.0316H60.2839V28.5375H60.837V27.6825L61.4725 27.5072Z" fill="#243040"/>
<path d="M63.1319 29.646C63.1319 29.2258 63.1235 28.8648 63.1024 28.5312H63.6703L63.6914 29.2322H63.721C63.8835 28.7529 64.2741 28.451 64.709 28.451C64.7829 28.451 64.8336 28.4594 64.8927 28.4742V29.0865C64.8273 29.0717 64.7597 29.0654 64.671 29.0654C64.2129 29.0654 63.8899 29.4116 63.8012 29.8993C63.7864 29.988 63.7716 30.0914 63.7716 30.2012V32.1056H63.1298V29.646H63.1319Z" fill="#243040"/>
<path d="M68.7015 30.2878C68.7015 31.6073 67.7873 32.1837 66.9238 32.1837C65.9568 32.1837 65.2115 31.4764 65.2115 30.3469C65.2115 29.1519 65.9927 28.451 66.9829 28.451C68.0069 28.451 68.7015 29.1963 68.7015 30.2878ZM65.8682 30.3258C65.8682 31.107 66.3179 31.6981 66.9533 31.6981C67.5741 31.6981 68.0385 31.1154 68.0385 30.311C68.0385 29.7051 67.7366 28.9387 66.9681 28.9387C66.1996 28.9387 65.8682 29.646 65.8682 30.3258Z" fill="#243040"/>
<path d="M75.354 29.5657C75.354 31.278 74.3132 32.1858 73.0443 32.1858C71.7311 32.1858 70.8085 31.1682 70.8085 29.6628C70.8085 28.0836 71.7902 27.0512 73.1182 27.0512C74.4757 27.0491 75.354 28.09 75.354 29.5657ZM71.4946 29.646C71.4946 30.7079 72.071 31.6601 73.0802 31.6601C74.0978 31.6601 74.6742 30.7227 74.6742 29.5953C74.6742 28.6072 74.1569 27.5748 73.0886 27.5748C72.0267 27.5727 71.4946 28.5544 71.4946 29.646Z" fill="#243040"/>
<path d="M79.2767 26.8654V31.1809C79.2767 31.4976 79.2852 31.8586 79.3063 32.1035H78.7236L78.694 31.4828H78.6793C78.4808 31.8818 78.0438 32.1837 77.4611 32.1837C76.5976 32.1837 75.9346 31.4532 75.9346 30.368C75.9283 29.1815 76.6651 28.451 77.5349 28.451C78.0818 28.451 78.4491 28.7086 78.6117 28.9978H78.6265V26.8654H79.2767V26.8654ZM78.6286 29.9859C78.6286 29.9057 78.6201 29.7938 78.599 29.7135C78.504 29.2997 78.1493 28.9619 77.6616 28.9619C76.9902 28.9619 76.5912 29.5531 76.5912 30.3406C76.5912 31.0626 76.9459 31.6601 77.6468 31.6601C78.0818 31.6601 78.4808 31.373 78.599 30.8853C78.6201 30.7966 78.6286 30.7079 78.6286 30.6045V29.9859Z" fill="#243040"/>
<path d="M83.5859 30.2878C83.5859 31.6073 82.6717 32.1837 81.8082 32.1837C80.8412 32.1837 80.0959 31.4764 80.0959 30.3469C80.0959 29.1519 80.8771 28.451 81.8673 28.451C82.8913 28.451 83.5859 29.1963 83.5859 30.2878ZM80.7526 30.3258C80.7526 31.107 81.2022 31.6981 81.8377 31.6981C82.4585 31.6981 82.9229 31.1154 82.9229 30.311C82.9229 29.7051 82.621 28.9387 81.8525 28.9387C81.084 28.9387 80.7526 29.646 80.7526 30.3258Z" fill="#243040"/>
<path d="M84.403 29.4982C84.403 29.1287 84.3966 28.8268 84.3734 28.5312H84.9498L84.9857 29.1203H85.0005C85.1778 28.7804 85.5916 28.4489 86.1807 28.4489C86.6747 28.4489 87.4432 28.7445 87.4432 29.969V32.1014H86.7929V30.0429C86.7929 29.4665 86.5797 28.9873 85.9674 28.9873C85.5388 28.9873 85.2074 29.2892 85.0976 29.6523C85.068 29.7325 85.0532 29.8444 85.0532 29.9542V32.1014H84.403V29.4982V29.4982Z" fill="#243040"/>
<path d="M89.2504 27.5072V28.5333H90.1794V29.0273H89.2504V30.9528C89.2504 31.3962 89.375 31.6474 89.7381 31.6474C89.907 31.6474 90.0337 31.6242 90.1139 31.6031L90.1435 32.0908C90.0189 32.1436 89.8183 32.1795 89.5671 32.1795C89.2652 32.1795 89.0203 32.0845 88.8662 31.9071C88.6825 31.715 88.6149 31.3983 88.6149 30.9782V29.0316H88.0618V28.5375H88.6149V27.6825L89.2504 27.5072Z" fill="#243040"/>
<path d="M94.0958 30.2878C94.0958 31.6073 93.1816 32.1837 92.3181 32.1837C91.3511 32.1837 90.6058 31.4764 90.6058 30.3469C90.6058 29.1519 91.387 28.451 92.3772 28.451C93.4033 28.451 94.0958 29.1963 94.0958 30.2878ZM91.2624 30.3258C91.2624 31.107 91.7121 31.6981 92.3476 31.6981C92.9683 31.6981 93.4328 31.1154 93.4328 30.311C93.4328 29.7051 93.1309 28.9387 92.3624 28.9387C91.5939 28.9387 91.2624 29.646 91.2624 30.3258Z" fill="#243040"/>
<path d="M94.9149 26.8654H95.5652V32.1035H94.9149V26.8654Z" fill="#243040"/>
<path d="M99.8848 30.2878C99.8848 31.6073 98.9706 32.1837 98.1071 32.1837C97.1402 32.1837 96.3949 31.4764 96.3949 30.3469C96.3949 29.1519 97.1761 28.451 98.1662 28.451C99.1923 28.451 99.8848 29.1963 99.8848 30.2878ZM97.0536 30.3258C97.0536 31.107 97.5033 31.6981 98.1388 31.6981C98.7595 31.6981 99.224 31.1154 99.224 30.311C99.224 29.7051 98.9221 28.9387 98.1536 28.9387C97.3851 28.9387 97.0536 29.646 97.0536 30.3258ZM99.1121 26.99L98.2127 28.0456H97.7482L98.3985 26.99H99.1121V26.99Z" fill="#243040"/>
<path d="M103.78 28.5312C103.765 28.7888 103.751 29.078 103.751 29.513V31.5862C103.751 32.4054 103.588 32.9058 103.242 33.2161C102.896 33.5413 102.393 33.6447 101.943 33.6447C101.515 33.6447 101.044 33.5413 100.755 33.3491L100.917 32.8551C101.154 33.0029 101.523 33.1359 101.964 33.1359C102.629 33.1359 103.115 32.7896 103.115 31.8881V31.4891H103.1C102.902 31.8206 102.518 32.0866 101.964 32.0866C101.08 32.0866 100.444 31.335 100.444 30.3448C100.444 29.135 101.234 28.4489 102.053 28.4489C102.674 28.4489 103.012 28.774 103.168 29.0696H103.183L103.212 28.5312H103.78V28.5312ZM103.109 29.9415C103.109 29.8318 103.102 29.7346 103.073 29.646C102.955 29.2702 102.638 28.9598 102.165 28.9598C101.544 28.9598 101.103 29.4834 101.103 30.3089C101.103 31.0098 101.458 31.5926 102.159 31.5926C102.558 31.5926 102.919 31.3413 103.058 30.9296C103.094 30.8198 103.109 30.6932 103.109 30.5834V29.9415Z" fill="#243040"/>
<path d="M105.505 27.5284C105.513 27.7501 105.351 27.9274 105.091 27.9274C104.863 27.9274 104.701 27.7501 104.701 27.5284C104.701 27.3004 104.87 27.123 105.106 27.123C105.351 27.123 105.505 27.3004 105.505 27.5284ZM104.783 32.1035V28.5333H105.433V32.1035H104.783Z" fill="#243040"/>
<path d="M109.054 31.9704C108.885 32.0591 108.507 32.1773 108.028 32.1773C106.951 32.1773 106.25 31.4469 106.25 30.3553C106.25 29.2554 107.002 28.4594 108.169 28.4594C108.554 28.4594 108.891 28.5544 109.069 28.6431L108.921 29.1456C108.767 29.0569 108.522 28.9767 108.169 28.9767C107.35 28.9767 106.907 29.5826 106.907 30.3258C106.907 31.1513 107.439 31.6601 108.146 31.6601C108.516 31.6601 108.758 31.5651 108.942 31.4827L109.054 31.9704Z" fill="#243040"/>
<path d="M113 30.2878C113 31.6073 112.086 32.1837 111.222 32.1837C110.255 32.1837 109.51 31.4764 109.51 30.3469C109.51 29.1519 110.291 28.451 111.281 28.451C112.307 28.451 113 29.1963 113 30.2878ZM110.167 30.3258C110.167 31.107 110.616 31.6981 111.252 31.6981C111.873 31.6981 112.337 31.1154 112.337 30.311C112.337 29.7051 112.035 28.9387 111.267 28.9387C110.5 28.9387 110.167 29.646 110.167 30.3258Z" fill="#243040"/>
</svg>
