<svg width="24" height="23" viewBox="0 0 24 23" fill="none" xmlns="http://www.w3.org/2000/svg">
<path d="M18.2896 1.41958C20.0886 2.36142 21.4923 3.67181 22.4872 5.32344C23.4957 6.97507 23.9864 8.85875 23.9864 10.9472C23.9864 12.4214 23.7683 13.6908 23.3458 14.7555C22.9233 15.8202 22.3237 16.6255 21.5468 17.1852C20.7836 17.7312 19.8705 18.0178 18.8348 18.0178C17.9761 18.0178 17.2675 17.8404 16.6814 17.4582C16.0954 17.0896 15.6729 16.5436 15.4003 15.8202C14.5009 17.2807 13.0698 18.0042 11.1073 18.0042C10.0307 18.0042 9.06303 17.7312 8.17717 17.1988C7.29131 16.6665 6.59625 15.9157 6.07836 14.9466C5.57411 13.9774 5.31516 12.8855 5.31516 11.6433C5.31516 10.4148 5.57411 9.32285 6.07836 8.36736C6.58262 7.39822 7.27768 6.66113 8.16354 6.11513C9.06303 5.59644 10.0443 5.32344 11.1346 5.32344C12.7836 5.32344 14.0784 5.86944 14.9915 6.97507V5.50089H18.3986V13.6362C18.3986 14.7145 18.7939 15.2469 19.598 15.2469C20.184 15.2469 20.6337 14.892 20.9608 14.1958C21.2879 13.4997 21.4514 12.435 21.4514 11.0018C21.4514 9.3092 21.0562 7.82136 20.2794 6.52463C19.5026 5.22789 18.4123 4.2178 16.9949 3.48071C15.5775 2.75727 13.9557 2.38872 12.1158 2.38872C10.276 2.38872 8.65417 2.78457 7.2368 3.56261C5.81942 4.34065 4.75639 5.40534 3.97956 6.78398C3.20273 8.14896 2.8075 9.71869 2.8075 11.4522C2.8075 13.2267 3.1891 14.8101 3.96593 16.1887C4.74276 17.5674 5.81942 18.6457 7.20954 19.4237C8.59966 20.2018 10.2078 20.5976 12.0341 20.5976C13.833 20.5976 15.4821 20.2291 16.9676 19.492L17.7717 21.7988C17.0221 22.181 16.1227 22.4813 15.1005 22.6861C14.0784 22.8908 13.0426 23 12.0341 23C9.66269 23 7.56388 22.5086 5.73765 21.5122C3.91141 20.5157 2.50767 19.1371 1.49915 17.3763C0.49063 15.6154 0 13.6499 0 11.4522C0 9.2819 0.504259 7.31632 1.51278 5.58279C2.52129 3.84926 3.9523 2.47062 5.79216 1.48783C7.63203 0.491395 9.74446 0 12.1431 0C14.4463 0 16.4906 0.477745 18.2896 1.41958ZM14.1738 14.2095C14.7598 13.5953 15.046 12.749 15.046 11.657C15.046 10.5786 14.7462 9.74599 14.1738 9.1454C13.5877 8.54481 12.8245 8.24451 11.9114 8.24451C10.971 8.24451 10.2215 8.54481 9.64906 9.15905C9.09029 9.77329 8.80409 10.5923 8.80409 11.657C8.80409 12.7353 9.09029 13.568 9.66269 14.1958C10.2351 14.8101 10.9847 15.124 11.925 15.124C12.8245 15.124 13.5877 14.8101 14.1738 14.2095Z" fill="#5585ED"/>
</svg>
