<svg width="28" height="38" viewBox="0 0 28 38" fill="none" xmlns="http://www.w3.org/2000/svg">
<g clip-path="url(#clip0)">
<path d="M19.4247 9.02044C18.1541 9.11899 12.7652 10.4724 11.4098 10.8271C10.8559 10.5578 10.3281 10.249 9.82639 9.9008C9.16826 9.46062 8.60135 9.08614 7.90412 9.02701C5.73423 8.85619 3.59693 9.66429 2.07866 11.241C0.560391 12.8178 -0.182452 14.9924 0.0456136 17.1736C0.482197 21.1615 1.96137 29.0913 7.00489 37.3693C7.26553 37.8029 7.76076 38.0329 8.25599 37.9541C8.75122 37.8818 9.15522 37.5139 9.28555 37.0211L9.81336 34.9648C10.3477 32.869 11.4098 30.9506 12.8955 29.3935L13.0714 29.2096C13.28 28.9928 13.6188 28.9862 13.8338 29.1899L14.0489 29.3935C15.6714 30.9637 16.8508 32.9413 17.4503 35.1224L17.9846 37.0671C18.115 37.5533 18.519 37.9146 19.0142 37.9803C19.0728 37.9869 19.138 37.9935 19.1966 37.9935C19.6332 37.9935 20.0307 37.7635 20.2588 37.389C25.3219 29.0913 26.801 21.155 27.2376 17.1539C27.4722 14.9793 26.7359 12.8112 25.2241 11.2345C23.7124 9.67086 21.5881 8.85619 19.4247 9.02044ZM25.9279 17.0159C25.5043 20.8856 24.0773 28.5526 19.2032 36.5875L18.7014 34.7742C18.0368 32.3631 16.7401 30.1754 14.9416 28.4409L14.7266 28.2372C13.9902 27.5277 12.8238 27.554 12.1136 28.2898L11.9376 28.4738C10.2956 30.2016 9.12264 32.3171 8.52967 34.6363L8.04096 36.5547C3.19293 28.5395 1.76588 20.8856 1.34233 17.0225C1.15336 15.2289 1.76588 13.4419 3.01047 12.1543C4.25506 10.86 6.00791 10.1964 7.79334 10.341C8.15173 10.3673 8.56877 10.6498 9.09658 10.998C10.5497 11.9637 12.7456 13.4288 17.7435 12.7981C17.9781 12.7718 18.1801 12.6207 18.2714 12.3973C18.3626 12.1805 18.33 11.9243 18.1866 11.7404C18.0433 11.5498 17.8152 11.4513 17.5806 11.4841C16.121 11.6681 14.9416 11.6615 13.9576 11.5367C16.0949 11.0111 18.7731 10.387 19.5159 10.3344C21.2949 10.203 23.0347 10.8731 24.2727 12.1608C25.5173 13.4551 26.1233 15.2355 25.9279 17.0159Z" fill="white"/>
<path d="M20.956 3.38342C20.5976 3.38342 20.2979 3.67907 20.2979 4.04698V4.87478H19.5616C19.1966 4.87478 18.9034 5.17042 18.9034 5.53833C18.9034 5.90624 19.1966 6.20189 19.5616 6.20189H20.2979V6.94428C20.2979 7.31219 20.5911 7.60783 20.956 7.60783C21.3209 7.60783 21.6141 7.31219 21.6141 6.94428V6.19532H22.4352C22.8001 6.19532 23.0933 5.89967 23.0933 5.53176C23.0933 5.16385 22.8001 4.86821 22.4352 4.86821H21.6141V4.04698C21.6076 3.67907 21.3144 3.38342 20.956 3.38342Z" fill="white"/>
<path d="M27.3419 1.48479H26.5208V0.663555C26.5208 0.295643 26.2276 0 25.8692 0C25.5043 0 25.2111 0.295643 25.2111 0.663555V1.49136H24.4747C24.1098 1.49136 23.8166 1.787 23.8166 2.15491C23.8166 2.52282 24.1098 2.81846 24.4747 2.81846H25.2111V3.56086C25.2111 3.92877 25.5043 4.22441 25.8692 4.22441C26.2341 4.22441 26.5273 3.92877 26.5273 3.56086V2.80532H27.3484C27.7133 2.80532 28.0065 2.50968 28.0065 2.14177C28.0065 1.77386 27.7068 1.48479 27.3419 1.48479Z" fill="white"/>
<path d="M27.3419 7.35171H26.5208V6.52391C26.5208 6.15599 26.2276 5.86035 25.8627 5.86035C25.4978 5.86035 25.2046 6.15599 25.2046 6.52391V7.35171H24.4682C24.1033 7.35171 23.8101 7.64735 23.8101 8.01526C23.8101 8.38317 24.1033 8.67882 24.4682 8.67882H25.2046V9.42121C25.2046 9.78912 25.4978 10.0848 25.8627 10.0848C26.2276 10.0848 26.5208 9.78912 26.5208 9.42121V8.67225H27.3419C27.7068 8.67225 28 8.3766 28 8.00869C28 7.64735 27.7068 7.35171 27.3419 7.35171Z" fill="white"/>
</g>
<defs>
<clipPath id="clip0">
<rect width="28" height="38" fill="white"/>
</clipPath>
</defs>
</svg>
