<svg width="23" height="22" viewBox="0 0 23 22" fill="none" xmlns="http://www.w3.org/2000/svg">
<g clip-path="url(#clip0)">
<path d="M22.59 18.54C22.12 19.86 20.26 20.96 18.78 21.28C17.77 21.5 16.44 21.67 11.98 19.82C6.27 17.46 2.6 11.66 2.31 11.28C2.03 10.9 0 8.21 0 5.42C0 2.63 1.42 1.28 1.99 0.7C2.45 0.22 3.23 0 3.97 0C4.21 0 4.43 0.01 4.62 0.02C5.19 0.04 5.48 0.08 5.85 0.98C6.32 2.11 7.46 4.9 7.6 5.18C7.74 5.47 7.88 5.85 7.68 6.23C7.5 6.62 7.34 6.79 7.05 7.13C6.77 7.46 6.5 7.71 6.21 8.06C5.95 8.37 5.65 8.7 5.98 9.27C6.31 9.83 7.45 11.69 9.13 13.19C11.3 15.12 13.06 15.74 13.68 16C14.15 16.19 14.71 16.15 15.05 15.78C15.48 15.31 16.02 14.53 16.57 13.77C16.96 13.22 17.45 13.15 17.96 13.35C18.48 13.53 21.26 14.9 21.83 15.19C22.4 15.48 22.78 15.61 22.92 15.85C23.06 16.09 23.06 17.22 22.59 18.54Z" fill="#5585ED"/>
</g>
<defs>
<clipPath id="clip0">
<rect width="23" height="21.41" fill="white"/>
</clipPath>
</defs>
</svg>
