<svg width="23" height="28" viewBox="0 0 23 28" fill="none" xmlns="http://www.w3.org/2000/svg">
<g clip-path="url(#clip0)">
<path d="M13.41 2.22005C10.43 1.47005 7.4 2.21005 5.1 4.24005C2.8 6.26005 1.64 9.25005 2 12.23C2.08 12.99 2.33 13.77 2.73 14.57L7.8 24.77L17.06 18.14C17.06 18.14 17.06 18.14 17.07 18.14C17.8 17.63 18.38 17.05 18.81 16.42C20.52 13.94 20.9 10.76 19.82 7.90005C18.73 5.03005 16.4 2.96005 13.41 2.22005ZM7.21 27.16C6.94 27.09 6.7 26.91 6.58 26.65L1 15.44C0.5 14.44 0.179999 13.44 0.0699995 12.45C-0.360001 8.84005 1.04 5.23005 3.81 2.79005C6.59 0.340047 10.26 -0.559953 13.87 0.340047C17.48 1.24005 20.3 3.74005 21.61 7.22005C22.91 10.67 22.46 14.52 20.38 17.52C19.83 18.33 19.08 19.07 18.16 19.72L8 27.01C7.77 27.17 7.48 27.23 7.21 27.16Z" fill="#5585ED"/>
<path d="M12.02 7.77991C10.16 7.31991 8.27 8.44991 7.8 10.3199C7.34 12.1799 8.47 14.0699 10.34 14.5399C12.2 14.9999 14.09 13.8699 14.56 11.9999C15.03 10.1299 13.88 8.23991 12.02 7.77991ZM9.87 16.4099C6.97 15.6899 5.21 12.7499 5.93 9.84991C6.65 6.94991 9.59 5.18991 12.49 5.90991C15.39 6.62991 17.15 9.56991 16.43 12.4699C15.71 15.3599 12.77 17.1299 9.87 16.4099Z" fill="#5585ED"/>
</g>
<defs>
<clipPath id="clip0">
<rect width="22.35" height="27.19" fill="white"/>
</clipPath>
</defs>
</svg>
