<svg width="56" height="55" viewBox="0 0 56 55" fill="none" xmlns="http://www.w3.org/2000/svg">
<path fill-rule="evenodd" clip-rule="evenodd" d="M21.53 7.75003V8.62C21.53 10.99 23.46 12.92 25.84 12.92C28.22 12.92 30.15 10.99 30.15 8.62V1.72H21.53V6.03003H25.84C26.32 6.03003 26.7 6.42003 26.7 6.89003C26.7 7.37003 26.32 7.75003 25.84 7.75003H21.53ZM19.81 8.62C19.81 11.6481 22.0645 14.1605 24.98 14.5788V16.517C23.98 16.8705 23.26 17.8234 23.26 18.95C23.26 20.37 24.41 21.53 25.84 21.53C27.27 21.53 28.43 20.38 28.42 18.95C28.42 17.8297 27.7043 16.8713 26.7 16.5166V14.5791C29.6227 14.1618 31.87 11.6489 31.87 8.62V7.74997H54.27C54.74 7.74997 55.13 7.36997 55.13 6.89997V3.44997C55.13 2.97997 54.75 2.58997 54.27 2.58997H31.87V0.86C31.87 0.39 31.49 0 31.01 0H20.67C20.2 0 19.81 0.39 19.81 0.86V8.62ZM24.98 18.95C24.98 18.4821 25.3566 18.0935 25.8335 18.09L25.84 18.09L25.8465 18.09C26.3234 18.0935 26.7 18.4821 26.7 18.95C26.7 19.42 26.32 19.81 25.84 19.81C25.37 19.81 24.98 19.43 24.98 18.95ZM0.86 49.9601H16.94C16.9621 49.9601 16.9839 49.9592 17.0054 49.9576C17.987 52.4903 19.2206 54.2401 20.74 54.2401C22.0443 54.2401 22.6593 52.6053 23.252 49.96H28.8754C29.3856 52.5982 29.9336 54.2401 31.26 54.2401C32.7759 54.2401 34.008 52.4914 34.9893 49.96H50.82C51.3 49.96 51.68 49.57 51.67 49.1V34.23C51.67 33.86 51.44 33.53 51.09 33.41C50.88 33.34 45.92 31.7 39.08 33.77C38.7574 33.8688 38.4185 33.9866 38.0578 34.1234C38.1405 33.095 38.18 32.2893 38.18 31.8101C38.18 25.8701 35.27 21.5601 31.26 21.5601C30.1911 21.5601 29.222 22.0191 28.273 22.4687L28.273 22.4687L28.27 22.4701C27.46 22.8601 26.69 23.2201 26 23.2201C25.31 23.2201 24.54 22.8601 23.73 22.4701C22.78 22.0201 21.8 21.5601 20.74 21.5601C16.73 21.5601 13.82 25.8701 13.82 31.8101C13.82 32.3092 13.8627 33.1626 13.9522 34.2528C13.4639 34.0606 13.0179 33.9026 12.59 33.7701C5.75 31.6901 0.79 33.3301 0.58 33.4001C0.23 33.5201 0 33.8501 0 34.2201V49.1001C0 49.5701 0.39 49.9601 0.86 49.9601ZM1.7 48.2301H16.4084C15.2462 44.4795 14.5157 39.7137 14.1376 36.1977C13.3582 35.8585 12.6835 35.5992 12.08 35.4201C7.09 33.9101 3.14 34.5501 1.7 34.8801V48.2301ZM28.5639 48.24H23.6136C23.6616 48.002 23.7103 47.7586 23.76 47.5101L23.7695 47.4627C24.1565 45.5379 25.1471 40.6101 26 40.6101C27.22 40.6101 28.06 45.3701 28.51 47.9301L28.5639 48.24ZM49.96 48.24H35.5841C36.7652 44.4337 37.5027 39.5786 37.8774 36.0459C38.5143 35.7779 39.0718 35.5742 39.58 35.42C44.57 33.91 48.52 34.55 49.96 34.88V48.24ZM20.73 23.2301C17.73 23.2301 15.47 26.9201 15.47 31.8101C15.47 38.5801 18.28 52.1801 20.63 52.5701C21.1426 52.0279 21.7136 49.2018 22.1033 47.2727L22.12 47.1901C23 42.7701 23.77 38.9601 25.99 38.9501C28.61 38.9601 29.39 43.3801 30.14 47.6501L30.1503 47.7083C30.4601 49.4576 30.9151 52.0261 31.37 52.5701C33.72 52.1501 36.52 38.5701 36.52 31.8201C36.52 26.9301 34.26 23.2401 31.26 23.2401C30.57 23.2401 29.8 23.6001 28.99 23.9901L28.9871 23.9915L28.987 23.9915C28.038 24.441 27.0689 24.9001 26 24.9001C24.94 24.9001 23.96 24.4401 23.01 23.9901C22.19 23.5901 21.42 23.2301 20.73 23.2301ZM16.52 29.29C16.52 29.76 16.9 30.15 17.38 30.15C17.86 30.15 18.24 29.76 18.24 29.29C18.24 27.39 19.79 25.84 21.69 25.84C22.16 25.84 22.55 25.46 22.55 24.98C22.55 24.51 22.17 24.12 21.69 24.12C18.84 24.12 16.52 26.44 16.52 29.29ZM53.4 6.02997H31.87V4.30997H53.4V6.02997Z" fill="white"/>
</svg>
