<svg width="41" height="42" viewBox="0 0 41 42" fill="none" xmlns="http://www.w3.org/2000/svg">
<g clip-path="url(#clip0)">
<path d="M28.7077 18.8306C28.7232 18.8384 28.7387 18.8384 28.7464 18.8462C29.0094 18.9471 29.3034 18.9471 29.5742 18.8462C29.5896 18.8384 29.6051 18.8384 29.6206 18.8306C35.0976 16.603 36.9387 12.4891 36.343 9.3921V9.38433C35.8866 7.13336 34.2466 5.67411 32.1657 5.67411C31.1987 5.67411 30.1776 6.00788 29.1719 6.6366C28.1585 5.97683 27.1451 5.64307 26.1472 5.64307C24.0508 5.64307 22.4108 7.11784 21.9853 9.3921C21.3819 12.5124 23.2308 16.6495 28.7077 18.8306ZM23.5325 9.68705C23.8187 8.16571 24.8243 7.22651 26.1472 7.22651C26.9362 7.22651 27.8104 7.5758 28.6923 8.2278C28.9708 8.43737 29.3498 8.43737 29.6283 8.23556C30.5102 7.59908 31.3843 7.25756 32.1657 7.25756C33.4885 7.25756 34.4942 8.18899 34.7959 9.69481C35.2677 12.1321 33.6974 15.4076 29.1642 17.3093C24.6232 15.4464 23.0606 12.1476 23.5325 9.68705Z" fill="white"/>
<path d="M8.06842 41.2636C8.37786 41.7681 8.95805 42.0398 9.54597 41.9544C10.1339 41.869 10.6058 41.4343 10.7605 40.8599L11.3639 38.5081C11.9828 36.1174 13.205 33.9208 14.9069 32.1355L15.108 31.9259C15.3324 31.6931 15.7037 31.6853 15.9358 31.9104L16.1833 32.1433C18.0477 33.9363 19.4014 36.2028 20.0899 38.6944L20.7088 40.922C20.8867 41.5663 21.4669 42.0087 22.1322 42.0087C22.6428 42.0087 23.1224 41.7448 23.3931 41.3024C26.7118 35.8612 29.1099 29.9156 30.5024 23.6905C36.5441 22.9997 41.085 17.8224 40.9999 11.7138C40.9071 5.6051 36.2269 0.55982 30.162 0.04753C24.0971 -0.472522 18.6356 3.71118 17.5216 9.71118C15.7192 10.1381 13.9941 10.5728 13.1818 10.7823C12.5475 10.4796 11.9441 10.1303 11.3639 9.7267C10.598 9.22217 9.9405 8.7875 9.13597 8.71765C6.62182 8.51583 4.15408 9.45503 2.39805 11.2636C0.642009 13.0799 -0.21667 15.5792 0.0463484 18.0941C0.549179 22.6659 2.2588 31.7629 8.06842 41.2636ZM29.1641 1.5844C34.7339 1.5844 39.2903 6.04753 39.4218 11.6361C39.5533 17.2248 35.2213 21.8975 29.6514 22.1614C24.0894 22.4253 19.3241 18.1872 18.9296 12.6142C18.9373 12.5676 18.9373 12.521 18.9373 12.4744C18.9373 12.4123 18.9296 12.3425 18.9063 12.2804C18.8986 12.1484 18.8986 12.0087 18.8986 11.8768C18.9063 6.19501 23.4937 1.59216 29.1641 1.5844ZM17.336 11.38C17.3282 11.4809 17.3282 11.5896 17.3282 11.6905C16.9801 11.675 16.6475 11.6517 16.3303 11.6206C16.6552 11.543 16.9879 11.4654 17.336 11.38ZM3.51974 12.3813C4.95088 10.8988 6.9622 10.1303 9.0122 10.2933C9.41446 10.3244 9.89408 10.6426 10.4975 11.0462C11.7971 11.9078 13.7311 13.1885 17.4056 13.2817C18.1096 19.142 22.9831 23.6051 28.8701 23.7603C27.5241 29.5818 25.2575 35.1549 22.1709 40.27L21.6216 38.2675C20.8558 35.4964 19.355 32.9816 17.2818 30.9945L17.0343 30.7616C16.1679 29.9389 14.8063 29.9621 13.9786 30.8237L13.7775 31.0333C11.8822 33.0126 10.5284 35.4499 9.83993 38.1122L9.29069 40.2312C3.73635 31.0721 2.09635 22.3321 1.61673 17.9233C1.39239 15.8819 2.08861 13.8483 3.51974 12.3813Z" fill="white"/>
</g>
<defs>
<clipPath id="clip0">
<rect width="41" height="42" fill="white"/>
</clipPath>
</defs>
</svg>
