<svg width="76" height="39" viewBox="0 0 76 39" fill="none" xmlns="http://www.w3.org/2000/svg">
<path fill-rule="evenodd" clip-rule="evenodd" d="M2.94716 9.8895C5.94716 14.5195 18.6472 32.2295 37.8972 32.9394C56.9771 32.2395 69.6572 14.5195 72.6572 9.8895C46.2472 -3.19045 39.0371 4.99949 38.7472 5.35947C38.5172 5.6395 38.1671 5.79954 37.8071 5.79954C37.4472 5.79954 37.0971 5.6395 36.8671 5.35947C36.5672 4.99949 29.3471 -3.18056 2.94716 9.8895ZM37.8972 35.3795C28.0971 35.0195 18.5072 30.5195 10.0672 22.3395C3.72713 16.2094 0.297137 10.2595 0.157122 10.0095C-0.0028512 9.71946 -0.0428292 9.37949 0.0471366 9.05955C0.137163 8.73948 0.367144 8.47947 0.657122 8.31944C25.0672 -4.10049 34.7572 0.379494 37.8071 2.8895C40.8471 0.379494 50.5371 -4.09048 74.9472 8.31944C75.2471 8.46946 75.4671 8.73948 75.5571 9.05955C75.6472 9.37949 75.6171 9.71946 75.4472 10.0095C75.3071 10.2595 71.8772 16.2094 65.5571 22.3395C57.1272 30.5095 47.5672 35.0195 37.8972 35.3795ZM20.3471 13.7695C24.3872 16.1994 31.1171 19.5195 37.7371 19.5195C44.3671 19.5195 51.0971 16.1994 55.1372 13.7695C50.1972 14.1095 42.4372 14.5995 37.7371 14.5995C33.0371 14.5995 25.2871 14.1195 20.3471 13.7695ZM37.7371 21.9594C26.4871 21.9594 15.5371 13.5395 15.0772 13.1795C14.6571 12.8495 14.4971 12.2795 14.6872 11.7795C14.8772 11.2795 15.3872 10.9695 15.9171 11.0095L16.0482 11.0195C17.5203 11.1334 30.9218 12.1695 37.7371 12.1695C44.9171 12.1695 59.4071 11.0095 59.5471 10.9995C60.0772 10.9594 60.5872 11.2695 60.7772 11.7695C60.9671 12.2695 60.8172 12.8395 60.3872 13.1695C59.9372 13.5395 48.9771 21.9594 37.7371 21.9594ZM27.7471 36.2695C29.4271 37.9494 33.2572 38.9995 37.7371 38.9995C41.8671 38.9995 45.5672 38.0694 47.3571 36.5895C47.8772 36.1695 47.9572 35.3995 47.5272 34.8795C47.1071 34.3595 46.3372 34.2795 45.8172 34.7094C44.6972 35.6295 41.7572 36.5694 37.7271 36.5694C33.4372 36.5694 30.4372 35.5195 29.4671 34.5495C28.9971 34.0794 28.2271 34.0794 27.7471 34.5495C27.2772 35.0195 27.2772 35.7895 27.7471 36.2695Z" fill="white"/>
</svg>
