<svg width="31" height="31" viewBox="0 0 31 31" fill="none" xmlns="http://www.w3.org/2000/svg">
<path fill-rule="evenodd" clip-rule="evenodd" d="M0 15.5C0 6.95294 6.95294 0 15.5 0C24.0471 0 31 6.95294 31 15.5C31 24.0471 24.0471 31 15.5 31C12.6742 31 9.91821 30.2351 7.51154 28.7853L1.36758 30.6751C1.16131 30.7383 0.934769 30.6846 0.777981 30.5338C0.621192 30.383 0.559788 30.1588 0.617019 29.949C0.618267 29.9446 0.631486 29.8962 0.654859 29.8107C0.854915 29.0787 1.79886 25.6248 2.34706 23.7043C0.810173 21.2463 0 18.4158 0 15.5ZM7.91037 27.6311C10.1817 29.0548 12.806 29.8077 15.5 29.8077C23.3889 29.8077 29.8077 23.3889 29.8077 15.5C29.8077 7.6111 23.3889 1.19231 15.5 1.19231C7.6111 1.19231 1.19231 7.6111 1.19231 15.5C1.19231 18.2763 1.98817 20.9685 3.49406 23.2858C3.58765 23.4306 3.61448 23.6095 3.56679 23.7752C3.15604 25.2066 2.44781 27.7796 2.05375 29.2181L7.41854 27.5668C7.47577 27.5495 7.53479 27.5405 7.59381 27.5405C7.7041 27.5405 7.81438 27.5709 7.91037 27.6311ZM22.9053 17.4817C23.589 17.9288 24.5258 18.5413 25.6257 19.152C25.8463 19.2742 25.9661 19.5222 25.9238 19.7708C25.358 23.1683 23.349 24.8811 19.9449 24.8811C19.3679 24.8811 18.7514 24.8322 18.0939 24.7338C12.3076 23.8658 7.76909 18.5225 6.0009 13.9256C4.39009 9.73698 7.77982 6.28107 7.92469 6.13621C8.00815 6.05334 8.11426 5.99671 8.22932 5.97346C9.4258 5.735 10.2086 5.78925 10.5561 6.13621C10.9025 6.48257 12.8173 9.90986 12.8173 10.7308C12.8173 11.5272 12.428 12.2271 11.3472 13.3395C11.5028 14.2552 12.5628 15.5996 14.2475 17.0035C15.8976 18.3776 17.5579 19.3213 17.9126 19.3768C18.2197 19.3148 19.2683 18.1624 20.0713 16.9576C20.0928 16.9254 20.1178 16.895 20.1458 16.867C20.3688 16.6416 20.9548 16.3692 21.728 16.7549C22.0046 16.8938 22.382 17.14 22.9042 17.481L22.9053 17.4817ZM7.11392 13.4975C8.29788 16.5749 12.152 22.6371 18.2709 23.5546C22.9937 24.2641 24.2301 22.1113 24.6724 19.9831C23.6983 19.4245 22.8732 18.8856 22.2521 18.4796C21.7817 18.172 21.4097 17.9293 21.1951 17.8214C21.0907 17.769 21.0174 17.7541 20.9739 17.7523C20.221 18.8629 18.8987 20.5673 17.8846 20.5673C16.7186 20.5673 10.1346 16.2368 10.1346 13.1154C10.1346 12.9568 10.1972 12.8054 10.3093 12.6939C11.5231 11.4795 11.625 11.0437 11.625 10.7308C11.563 10.2527 10.1573 7.59678 9.7513 7.03223C9.55696 7.00182 9.09136 7.03342 8.64901 7.10853C8.10532 7.72377 5.93949 10.4452 7.11392 13.4975Z" fill="#0DC143"/>
</svg>
